<svg width="701" height="717" viewBox="0 0 701 717" fill="none" xmlns="http://www.w3.org/2000/svg">
<path fill-rule="evenodd" clip-rule="evenodd" d="M97.3322 610.374V619.249H98.4566V620.876H98.0818C129.955 641.003 112.081 647.252 115.831 651.252C109.707 651.125 103.581 651.125 97.3322 651.252H78.5789C80.9544 646.876 62.4561 641.126 95.4555 620.876H95.0793V619.249H96.2065V610.874C95.9571 610.874 95.7077 610.874 95.4555 610.874C94.0804 610.874 92.832 609.999 92.3304 608.624C92.956 609.251 93.707 609.499 94.582 609.499C96.4559 609.499 98.0818 608 98.0818 606.123C98.0818 605.745 97.9564 605.248 97.8324 605C98.5806 605.623 98.9554 606.496 98.9554 607.375C98.9554 608.624 98.3298 609.748 97.3322 610.374ZM35.0786 659.001C35.4519 658.253 32.4537 657.374 37.9514 654.001C43.2026 657.374 40.3284 658.379 40.9525 659.001C38.9518 659.001 37.0793 659.001 35.0786 659.001ZM34.8292 664.751H40.8271V661.498H34.8292V664.751ZM35.9535 664.003H37.0793V662.124H35.9535V664.003ZM38.7024 664.003H39.7028V662.124H38.7024V664.003ZM37.3287 664.003H38.3276V662.124H37.3287V664.003ZM34.0768 661.126H41.7049V660.502H34.0768V661.126ZM34.0768 660.003H41.7049V659.376H34.0768V660.003ZM34.0768 665.749H41.7049V665.25H34.0768V665.749ZM34.0768 666.5H41.7049V666.001H34.0768V666.5ZM34.7038 666.625H40.9525V682.128H34.7038V666.625ZM40.9525 683.13V696.505H34.7038V683.13H40.9525ZM40.9525 697.503V705.756H48.3271V667.505L60.7034 665.002V705.758H61.2022V658.255H62.8295V657.752H77.3306V653.375H116.332V657.002V657.75H131.331V658.253H132.582V705.756H133.331V664.375L145.331 667.754V705.756H153.457V697.503H159.582V705.756H170.707V692.38H180.709V705.756H193.456V709.128H0.451843V705.756H13.5777V692.38H23.7026V705.756H34.7038V697.503H40.9525ZM23.2024 629.747C22.5768 628.625 27.4532 627.252 18.5767 621.878C9.95247 627.125 14.7021 628.749 13.7017 629.747C16.8268 629.747 20.0773 629.747 23.2024 629.747ZM23.4546 639.124H13.8271V633.871H23.4546V639.124ZM21.7019 638.001H20.0773V635.001H21.7019V638.001ZM17.2016 638.001H15.5771V635.001H17.2016V638.001ZM19.4531 638.001H17.8272V635.001H19.4531V638.001ZM24.9509 633.625H12.452V632.251H24.9509V633.625ZM24.9509 631.627H12.452V630.378H24.9509V631.627ZM24.9509 640.751H12.452V639.503H24.9509V640.751ZM24.9509 642.001H12.452V641.126H24.9509V642.001ZM193.456 717H0.451843V710.254H193.456V717ZM23.704 642.252H13.5792V667.375H23.704V642.252ZM171.085 629.747C171.833 628.625 166.834 627.252 175.834 621.878C184.456 627.125 179.707 628.749 180.709 629.747C177.46 629.747 174.332 629.747 171.085 629.747ZM180.585 639.124V633.871H181.96V632.251H169.457V633.871H170.834V639.124H169.457V640.626V640.751V642.25H170.707V667.373H180.709V642.25H181.96V640.751V640.626V639.124H180.585ZM172.709 638.001H174.332V635.001H172.709V638.001ZM177.085 638.001H178.832V635.001H177.085V638.001ZM174.956 638.001H176.585V635.001H174.956V638.001ZM169.457 631.999H181.96V630.378H169.457V631.999ZM180.709 669.004V690.626H170.707V669.004H180.709ZM79.7061 705.756H114.082V660.377H79.7061V705.756ZM159.334 659.001C158.959 658.253 161.957 657.374 156.459 654.001C151.083 657.374 154.083 658.379 153.46 659.001C155.456 659.001 157.332 659.001 159.334 659.001ZM159.583 664.751H153.584V661.498H159.583V664.751ZM158.332 664.003H157.332V662.124H158.332V664.003ZM155.707 664.003H154.71V662.124H155.707V664.003ZM156.958 664.003H155.958V662.124H156.958V664.003ZM160.331 661.251H152.709V660.502H160.331V661.251ZM160.331 660.003H152.709V659.376H160.331V660.003ZM160.331 665.749H152.709V665.126H160.331V665.749ZM160.331 666.625H159.583V682.128H153.458V666.625H152.709V666.002H160.331V666.625ZM153.458 683.13V696.505H159.583V683.13H153.458ZM13.5792 669.004V690.626H23.704V669.004H13.5792ZM57.3289 692.753V702.003L50.9562 702.128V693.503C50.9562 691.878 53.9544 689.252 54.0798 689.252C54.2038 689.252 57.3289 691.129 57.3289 692.753ZM57.3289 677.253V686.379L50.9562 687.129V678.001C50.9562 676.248 53.9544 673.626 54.0798 673.626C54.2038 673.501 57.3289 675.376 57.3289 677.253ZM136.957 692.753V702.003L143.332 702.128V693.503C143.332 691.878 140.208 689.252 140.085 689.252C139.958 689.252 136.957 691.129 136.957 692.753ZM136.957 677.253V686.379L143.332 687.129V678.001C143.332 676.248 140.208 673.626 140.085 673.626C139.958 673.501 136.957 675.376 136.957 677.253ZM118.205 657.002C118.958 655.627 112.955 654.002 123.957 647.375H123.833H123.459V646.876H123.833V644.626C123.71 644.626 123.583 644.626 123.459 644.626C123.082 644.626 122.582 644.251 122.457 643.873C122.582 643.999 122.957 644.124 123.211 644.124C123.833 644.124 124.332 643.625 124.332 643.122C124.332 643.001 124.332 642.876 124.21 642.75C124.459 642.876 124.583 643.122 124.583 643.499C124.583 643.873 124.459 644.123 124.21 644.378V646.874H124.459V647.373H124.21H123.959C134.458 653.753 128.959 655.751 129.958 657.001L118.205 657.002ZM100.081 679.251V686.379H107.333V679.003C107.333 674.754 97.4576 669.004 96.9561 669.004C96.4559 669.004 86.5805 674.754 86.5805 679.003V686.379H93.707V679.251C93.707 678.001 96.7067 676.249 96.9561 676.249C97.0786 676.25 100.081 678.003 100.081 679.251ZM100.081 695.124V702.128H93.7056V695.124C93.7056 693.749 96.7053 692.004 96.9547 692.004C97.0787 692.004 100.081 693.751 100.081 695.124ZM107.333 688.88H86.5805V702.128H83.5822V664.129H110.207V702.128H107.333V688.88ZM67.0804 680.876H69.5813V685.625H67.0804V680.876ZM67.0804 697.376H69.5813V702.128H67.0804V697.376ZM124.456 697.376H126.956V702.128H124.456V697.376ZM124.456 680.876H126.956V685.625H124.456V680.876ZM64.8303 660.75H67.0804V664.129H64.8303V660.75ZM127.332 660.75H129.706V664.129H127.332V660.75ZM123.581 660.75H125.831V664.129H123.581V660.75ZM119.705 660.75H121.957V664.129H119.705V660.75ZM72.5796 660.75H74.8311V664.129H72.5796V660.75ZM68.7049 660.75H70.955V664.129H68.7049V660.75ZM121.083 688.502H124.58C123.832 688.88 123.081 689.503 122.706 689.751C121.957 690.375 120.958 691.505 120.958 692.628V702.629H130.584V692.628C130.584 691.505 129.458 690.375 128.707 689.751C128.458 689.503 127.581 688.88 126.832 688.502H130.584V687.505H121.083V688.502ZM63.5791 671.5H67.8299C67.0804 671.878 65.7052 673.002 65.3305 673.253C64.5781 673.879 63.4537 675 63.4537 676.127V686.125H73.0798V676.127C73.0798 675 71.9554 673.879 71.2044 673.253C70.8297 672.877 69.5813 671.877 68.7049 671.5H73.0812V670.503H63.5805V671.5H63.5791ZM63.5791 688.502H67.2044C66.4534 688.88 65.5798 689.503 65.3305 689.751C64.5781 690.375 63.4537 691.505 63.4537 692.628V702.629H73.0798V692.628C73.0798 691.505 72.0808 690.375 71.2044 689.751C70.955 689.503 70.2054 688.88 69.4559 688.502H73.0812V687.505H63.5805V688.502H63.5791ZM120.832 671.5H125.333C124.456 671.878 123.081 672.877 122.83 673.253C121.957 673.879 120.958 675 120.958 676.127V686.125H130.584V676.127C130.584 675 129.458 673.879 128.707 673.253C128.332 673.002 126.957 671.877 126.208 671.5H130.208V670.503H120.832V671.5ZM70.328 642.75C70.5802 642.876 70.7042 643.122 70.7042 643.499C70.7042 643.873 70.5802 644.123 70.328 644.378V646.874H70.7042V647.373H70.328H70.0787H69.9547H69.5799V646.874H69.9547V644.624C69.8293 644.624 69.7039 644.624 69.5799 644.624C69.2037 644.624 68.8289 644.25 68.5781 643.872C68.8303 643.997 69.0783 644.123 69.3291 644.123C69.9547 644.123 70.4534 643.624 70.4534 643.121C70.4548 643.001 70.4548 642.876 70.328 642.75ZM70.0801 647.373C80.5797 653.753 75.2059 655.751 76.0794 657.001H64.3287C65.2051 655.627 59.0789 654.002 70.0801 647.373Z" fill="#009EE2"/>
<path fill-rule="evenodd" clip-rule="evenodd" d="M666.376 665.028V666.695V680.227V681.336V683.555V705.83V713.325L663.671 717H671.234H682.821H692.882L690.663 713.325H690.594V684.111L692.051 680.087H686.847H688.511H690.524C691.009 674.189 696.005 669.471 701.972 669.471C708.078 669.471 713.006 674.189 713.49 680.087H715.504H717.238H711.965L713.422 684.111V713.325H713.353L710.716 717H721.056H732.226H739.86L737.708 713.325V705.83V683.555V681.336V680.227V666.695V665.028V660.242V659.616L744.022 654.69H744.23V654.481V654.204H737.708V649.416V648.1V646.988V646.226H666.376V646.988V648.1V649.416V654.204H659.785V654.344V654.69H660.131L666.376 659.616V660.242V665.028Z" fill="#009EE2"/>
<path fill-rule="evenodd" clip-rule="evenodd" d="M664.363 675.438V683.07V683.695V684.319H663.878V697.086V697.918V702.708V703.539V714.989V716.446V716.999H580.405V716.446V714.989V703.539V702.708V697.918V697.086V684.318H579.502V683.695V683.069V675.437V674.397H580.681V667.249V649.901V648.791V633.249V632.136V600.289H579.017V598.206H582.347V595.084H583.527V594.114H583.874L585.193 591.755L586.58 589.256L587.899 591.755L589.218 594.114H589.565V595.084H609.271V598.206H612.671V600.289H610.798V632.136V633.249V634.082H618.985L620.305 624.157L620.582 621.521V607.366H618.362V605.63H620.582V603.756H622.456V605.63H624.676V607.366H622.456V621.174L622.872 624.156L624.19 634.081H633.419V633.248V632.135V600.288H631.753V598.205H635.085V595.083H654.375V594.113H654.721L656.04 591.754L657.358 589.255L658.745 591.754L659.995 594.113H660.411V595.083H662.008V598.205H665.407V600.288H663.535V632.135V633.248V648.79V649.9V667.249V674.396H664.366V675.438H664.363ZM633.416 637.204H624.118V643.034L624.673 643.934L627.865 648.932H633.416V648.792V637.204ZM618.983 637.204H610.795V648.792V648.932H615.237L618.36 643.934L618.983 643.034V637.204ZM631.959 662.739C631.682 657.743 627.796 653.789 622.869 653.442C627.796 653.788 631.682 657.813 631.959 662.739ZM585.678 649.626H605.801V648.793V634.36H585.678V648.793V649.626ZM592.894 636.789C592.201 636.789 591.576 637.204 591.576 637.689V648.029H594.212V637.689C594.212 637.204 593.657 636.789 592.894 636.789ZM598.098 636.789C597.404 636.789 596.779 637.204 596.779 637.689V648.029H599.416V637.689C599.416 637.204 598.861 636.789 598.098 636.789ZM589.91 654.691H587.204V651.984H589.91V654.691ZM604.135 654.691H601.36V651.984H604.135V654.691ZM645.629 636.789C644.935 636.789 644.311 637.204 644.311 637.689V648.029H646.948V637.689C646.947 637.204 646.391 636.789 645.629 636.789ZM650.834 636.789C650.138 636.789 649.584 637.204 649.584 637.689V648.029H652.152V637.689C652.152 637.204 651.597 636.789 650.834 636.789ZM642.646 654.691H639.938V651.984H642.646V654.691ZM656.871 654.691H654.164V651.984H656.871V654.691ZM585.469 714.989H587.342V696.67C587.342 691.05 595.599 686.47 595.599 686.47C595.599 686.47 603.857 691.05 603.857 696.67V714.989H606.563V703.539V702.708V697.918V697.086V684.318H585.469V697.085V697.918V702.707V703.539V714.989ZM611.629 714.989H613.779V696.67C613.779 691.05 622.037 686.47 622.037 686.47C622.037 686.47 630.294 691.05 630.294 696.67V714.989H632.654V703.539V702.708V697.918V697.086V684.318H611.629V697.085V697.918V702.707V703.539V714.989ZM637.788 714.989H640.147V696.67C640.147 691.05 648.404 686.47 648.404 686.47C648.404 686.47 656.662 691.05 656.662 696.67V714.989H658.743V703.539V702.708V697.918V697.086V684.318H637.788V697.085V697.918V702.707V703.539L637.788 714.989Z" fill="#009EE2"/>
<path fill-rule="evenodd" clip-rule="evenodd" d="M520.243 603.552L521.354 613.959L558.198 609.935L557.089 599.527L520.243 603.552ZM549.595 698.544C530.375 698.544 513.79 706.177 507.061 717H592.27C585.4 706.177 568.886 698.544 549.595 698.544ZM565.97 670.442L526.836 674.745L527.043 677.104L566.249 672.801L565.97 670.442ZM550.844 583.081L522.673 586.134L522.465 584.054L550.637 581L550.844 583.081ZM557.852 595.987L518.647 600.22L518.925 602.648L558.06 598.346L557.852 595.987ZM559.448 610.836L520.313 615.139L520.521 617.569L559.727 613.266L559.448 610.836ZM561.045 625.755L521.909 630.058L522.186 632.416L561.321 628.185L561.045 625.755ZM562.71 640.606L523.506 644.906L523.852 647.335L562.987 643.034L562.71 640.606ZM564.306 655.523L525.171 659.826L525.448 662.254L564.583 657.949L564.306 655.523ZM526.35 598.693L525.031 586.76L548.693 584.192L550.012 596.125L526.35 598.693ZM542.448 590.09L542.866 594.322L546.959 593.907L546.541 589.673C546.402 588.495 545.363 587.591 544.253 587.73C543.142 587.869 542.309 588.91 542.448 590.09ZM528.362 591.687L528.848 595.918L532.942 595.432L532.457 591.201C532.316 590.02 531.276 589.188 530.167 589.326C529.056 589.396 528.223 590.435 528.362 591.687ZM535.371 590.922L535.856 595.155L539.949 594.669L539.464 590.436C539.395 589.257 538.354 588.354 537.174 588.564C536.064 588.634 535.301 589.673 535.371 590.922ZM553.274 602.027L554.035 608.893L556.465 608.617L555.702 601.747C555.632 601.192 555.077 600.776 554.383 600.844C553.689 600.914 553.204 601.401 553.274 602.027ZM529.472 665.515L530.305 672.385L532.665 672.107L531.901 665.238C531.832 664.682 531.277 664.267 530.583 664.335C529.959 664.474 529.472 664.961 529.472 665.515ZM532.873 665.098L533.635 672.039L536.063 671.76L535.3 664.891C535.232 664.335 534.675 663.92 533.983 663.99C533.29 664.058 532.803 664.614 532.873 665.098ZM536.272 664.821L537.036 671.623L539.395 671.413L538.701 664.474C538.631 663.919 538.008 663.571 537.313 663.642C536.689 663.712 536.204 664.198 536.272 664.821ZM539.603 664.405L540.368 671.272L542.795 670.995L542.032 664.128C541.962 663.57 541.407 663.224 540.714 663.224C540.019 663.364 539.535 663.851 539.603 664.405ZM543.004 663.989L543.767 670.926L546.126 670.649L545.433 663.782C545.364 663.225 544.739 662.809 544.114 662.878C543.42 662.948 542.934 663.501 543.004 663.989ZM546.334 663.712L547.097 670.51L549.527 670.302L548.832 663.363C548.763 662.808 548.139 662.462 547.444 662.531C546.751 662.601 546.265 663.085 546.334 663.712ZM549.735 663.294L550.496 670.163L552.926 669.887L552.163 663.085C552.094 662.462 551.469 662.115 550.845 662.115C550.15 662.254 549.665 662.739 549.735 663.294ZM553.134 662.948L553.828 669.816L556.326 669.54L555.562 662.669C555.492 662.115 554.868 661.7 554.175 661.769C553.551 661.838 553.064 662.392 553.134 662.948ZM556.465 662.601L557.228 669.47L559.657 669.194L558.894 662.323C558.824 661.769 558.199 661.353 557.575 661.424C556.949 661.492 556.395 661.976 556.465 662.601ZM559.865 662.185L560.558 669.054L563.055 668.775L562.293 661.976C562.224 661.352 561.668 661.006 560.975 661.006C560.281 661.146 559.796 661.629 559.865 662.185ZM527.877 650.458L528.571 657.327L531.068 657.05L530.306 650.179C530.236 649.626 529.681 649.278 528.987 649.278C528.293 649.417 527.808 649.902 527.877 650.458ZM531.208 650.111L532.04 656.98L534.399 656.703L533.636 649.832C533.566 649.278 533.012 648.863 532.317 648.933C531.693 649 531.208 649.555 531.208 650.111ZM534.607 649.762L535.371 656.634L537.8 656.356L537.036 649.416C536.967 648.932 536.412 648.516 535.718 648.585C535.024 648.654 534.538 649.14 534.607 649.762ZM537.938 649.349L538.77 656.217L541.129 656.011L540.436 649.14C540.298 648.516 539.743 648.169 539.049 648.169C538.423 648.307 537.938 648.793 537.938 649.349ZM541.337 649L542.102 655.871L544.53 655.591L543.766 648.723C543.696 648.169 543.142 647.752 542.447 647.82C541.754 647.889 541.269 648.446 541.337 649ZM544.738 648.654L545.501 655.523L547.86 655.244L547.167 648.307C547.097 647.82 546.472 647.404 545.848 647.474C545.154 647.543 544.668 648.029 544.738 648.654ZM548.069 648.239L548.832 655.107L551.261 654.898L550.496 648.029C550.496 647.403 549.874 647.056 549.179 647.056C548.485 647.196 548.001 647.682 548.069 648.239ZM551.469 647.889L552.233 654.759L554.592 654.482L553.898 647.612C553.829 647.056 553.205 646.64 552.58 646.78C551.885 646.78 551.399 647.335 551.469 647.889ZM554.868 647.543L555.562 654.414L558.06 654.135L557.298 647.196C557.228 646.711 556.603 646.295 555.91 646.364C555.284 646.434 554.731 646.92 554.868 647.543ZM558.199 647.126L558.963 653.998L561.392 653.788L560.628 646.92C560.559 646.294 559.934 645.948 559.309 645.948C558.686 646.087 558.129 646.572 558.199 647.126ZM526.212 635.401L526.974 642.27L529.403 642.061L528.64 635.124C528.571 634.566 528.016 634.22 527.322 634.29C526.697 634.36 526.142 634.846 526.212 635.401ZM529.611 635.052L530.306 641.923L532.803 641.645L532.04 634.775C531.97 634.22 531.347 633.804 530.721 633.874C530.028 633.943 529.543 634.497 529.611 635.052ZM532.942 634.706L533.704 641.576L536.133 641.299L535.371 634.43C535.301 633.874 534.746 633.458 534.053 633.528C533.427 633.597 532.942 634.083 532.942 634.706ZM536.342 634.29L537.105 641.16L539.534 640.951L538.769 634.083C538.7 633.457 538.146 633.112 537.451 633.181C536.759 633.25 536.272 633.734 536.342 634.29ZM539.673 633.943L540.507 640.812L542.866 640.535L542.171 633.665C542.033 633.111 541.477 632.694 540.784 632.764C540.16 632.834 539.673 633.388 539.673 633.943ZM543.074 633.597L543.836 640.466L546.265 640.187L545.502 633.321C545.433 632.764 544.877 632.347 544.184 632.417C543.489 632.486 543.004 633.041 543.074 633.597ZM546.473 633.25L547.237 640.048L549.596 639.841L548.903 632.973C548.833 632.346 548.209 632 547.514 632.07C546.889 632.137 546.403 632.625 546.473 633.25ZM549.804 632.834L550.567 639.701L552.995 639.424L552.233 632.557C552.233 632 551.608 631.583 550.914 631.723C550.22 631.791 549.735 632.276 549.804 632.834ZM553.204 632.486L553.967 639.355L556.326 639.078L555.631 632.208C555.562 631.654 554.938 631.238 554.313 631.307C553.62 631.375 553.134 631.931 553.204 632.486ZM556.534 632.137L557.298 638.939L559.796 638.732L559.032 631.86C558.963 631.237 558.339 630.891 557.645 630.961C556.949 631.028 556.465 631.515 556.534 632.137ZM524.616 620.413L525.309 627.211L527.738 627.004L526.975 620.066C526.975 619.509 526.351 619.163 525.726 619.23C525.032 619.301 524.477 619.789 524.616 620.413ZM527.946 619.998L528.71 626.864L531.139 626.588L530.374 619.789C530.305 619.164 529.75 618.817 529.055 618.817C528.431 618.954 527.877 619.44 527.946 619.998ZM531.347 619.581L532.04 626.519L534.538 626.241L533.705 619.37C533.705 618.817 533.082 618.401 532.457 618.538C531.762 618.538 531.277 619.094 531.347 619.581ZM534.676 619.301L535.441 626.172L537.869 625.895L537.105 618.954C537.036 618.469 536.481 618.055 535.788 618.123C535.163 618.192 534.676 618.678 534.676 619.301ZM538.077 618.885L538.839 625.755L541.269 625.479L540.506 618.678C540.436 618.055 539.881 617.708 539.187 617.708C538.493 617.845 538.008 618.331 538.077 618.885ZM541.407 618.538L542.24 625.41L544.599 625.132L543.905 618.261C543.767 617.707 543.212 617.292 542.517 617.429C541.893 617.429 541.407 617.984 541.407 618.538ZM544.808 618.192L545.572 625.063L548.001 624.784L547.236 617.915C547.167 617.36 546.611 616.945 545.917 617.013C545.223 617.083 544.738 617.569 544.808 618.192ZM548.207 617.775L548.97 624.644L551.329 624.366L550.636 617.569C550.496 616.945 549.941 616.595 549.247 616.595C548.623 616.734 548.138 617.221 548.207 617.775ZM551.537 617.429L552.302 624.296L554.731 624.02L553.967 617.152C553.897 616.594 553.342 616.179 552.648 616.318C551.955 616.318 551.469 616.872 551.537 617.429ZM554.939 617.083L555.702 623.95L558.061 623.673L557.368 616.804C557.298 616.249 556.673 615.833 556.049 615.903C555.355 615.972 554.868 616.458 554.939 617.083ZM522.95 605.355L523.714 612.227L526.142 611.948L525.379 605.01C525.309 604.524 524.686 604.108 523.991 604.177C523.367 604.246 522.881 604.733 522.95 605.355ZM526.35 604.938L527.043 611.81L529.472 611.599L528.71 604.732C528.71 604.106 528.085 603.757 527.46 603.757C526.766 603.897 526.212 604.385 526.35 604.938ZM529.68 604.593L530.444 611.46L532.873 611.183L532.109 604.315C532.04 603.757 531.485 603.342 530.79 603.481C530.097 603.481 529.611 604.039 529.68 604.593ZM533.081 604.246L533.774 611.114L536.272 610.837L535.44 603.966C535.44 603.412 534.815 602.996 534.191 603.067C533.496 603.136 532.942 603.62 533.081 604.246ZM536.412 603.828L537.175 610.697L539.603 610.49L538.839 603.619C538.77 602.995 538.215 602.648 537.521 602.648C536.897 602.788 536.412 603.272 536.412 603.828ZM539.811 603.481L540.575 610.35L543.004 610.074L542.241 603.203C542.171 602.649 541.617 602.233 540.922 602.372C540.228 602.372 539.743 602.926 539.811 603.481ZM543.142 603.136L543.905 610.005L546.334 609.728L545.572 602.857C545.502 602.303 544.947 601.887 544.253 601.957C543.628 602.027 543.142 602.51 543.142 603.136ZM546.541 602.718L547.305 609.587L549.735 609.381L548.97 602.509C548.901 601.886 548.346 601.54 547.651 601.609C546.959 601.679 546.473 602.163 546.541 602.718ZM549.873 602.372L550.706 609.241L553.063 608.964L552.37 602.094C552.232 601.541 551.676 601.122 550.983 601.26C550.358 601.259 549.873 601.817 549.873 602.372ZM521.84 618.469L522.95 628.809L559.796 624.784L558.686 614.445L521.84 618.469ZM523.436 633.388L524.616 643.728L561.461 639.702L560.282 629.364L523.436 633.388ZM525.101 648.307L526.212 658.647L563.055 654.622L561.946 644.282L525.101 648.307ZM526.697 663.154L527.876 673.565L564.652 669.54L563.543 659.132L526.697 663.154ZM528.362 678.074L530.722 700.002C531.277 699.86 531.832 699.723 532.457 699.515L530.652 683.486C530.514 681.892 531.902 680.503 533.846 680.227C535.788 680.017 537.453 681.126 537.593 682.793L539.257 698.198C539.881 698.127 540.436 698.058 541.061 697.988L539.396 682.585C539.258 680.988 540.645 679.533 542.518 679.323C544.392 679.113 546.127 680.226 546.265 681.822L548.002 697.504C548.556 697.434 549.111 697.434 549.596 697.434H549.804L548.07 681.612C547.931 680.017 549.319 678.56 551.192 678.35C553.135 678.142 554.8 679.254 555.008 680.848L556.812 697.781C557.437 697.85 558.061 697.918 558.686 697.988L556.812 680.641C556.604 679.113 558.061 677.588 559.935 677.38C561.808 677.173 563.544 678.282 563.683 679.946L565.833 699.306C566.527 699.443 567.29 699.651 567.984 699.86L565.208 674.05L528.362 678.074Z" fill="#009EE2"/>
<path fill-rule="evenodd" clip-rule="evenodd" d="M521.943 17.4084C520.012 19.2011 520.566 18.9943 516.082 17.6844C512.149 16.4428 514.012 16.0292 510.496 18.0288C507.322 19.8915 502.149 21.7542 499.733 23.2018C500.632 25.2028 508.356 31.755 510.219 34.4449C509.528 34.7893 508.977 35.066 508.219 35.4112C507.046 35.9624 507.322 35.9624 505.943 35.1352C502.907 33.4101 493.181 27.8927 491.25 27.064C488.699 28.1679 481.938 31.6174 479.595 31.479C478.49 31.4106 476.696 31.1346 477.044 29.7547C477.939 26.3752 484.009 24.5117 487.941 22.7874C489.526 22.0986 489.112 22.1678 489.457 20.4419C489.873 18.58 492.494 5.06056 493.114 4.37176C493.39 4.16497 495.528 3.26859 495.941 3.06102C496.149 4.30335 496.286 5.68249 496.355 6.99245L497.044 14.6485C497.044 15.8901 497.252 17.3384 497.459 18.5108C499.252 17.6144 501.046 16.8556 502.908 15.9593C512.15 11.5443 510.497 14.5109 512.632 9.54474C513.876 6.78566 513.876 5.12974 516.565 5.54489C516.082 11.0623 517.597 14.5117 521.943 17.4084ZM519.942 10.5803C518.909 10.9254 519.323 12.5106 520.494 12.2354L522.082 11.6842C523.046 11.4074 522.771 9.75232 521.53 10.0967L519.942 10.5803ZM699.622 47.7575C700.517 48.4471 701.553 47.0671 700.655 46.446L699.966 45.8264C699.001 45.0668 698.035 46.5152 698.863 47.1371L699.622 47.7575ZM694.862 43.9629C695.76 44.6532 696.793 43.2733 695.968 42.5845L694.587 41.5497C693.691 40.8594 692.655 42.1693 693.553 42.8597L694.862 43.9629ZM689.482 39.7562C690.309 40.4458 691.413 39.1358 690.516 38.4455L689.137 37.4107C688.241 36.7219 687.136 38.0327 688.102 38.7907L689.482 39.7562ZM683.963 35.824C684.928 36.446 685.828 34.9976 684.928 34.3765L683.551 33.4101C682.514 32.7905 681.619 34.2388 682.584 34.86L683.963 35.824ZM678.308 31.9618C679.273 32.5829 680.17 31.1354 679.273 30.5134L677.827 29.6171C676.86 28.9967 675.964 30.445 676.86 31.0646L678.308 31.9618ZM672.582 28.3063C673.48 28.9267 674.445 27.5476 673.48 26.858L671.962 25.9616C671.134 25.4096 670.101 26.7888 671.134 27.4791L672.582 28.3063ZM666.72 24.8577C667.756 25.4089 668.444 23.8913 667.549 23.4093L666.03 22.5122C664.997 22.0302 664.236 23.5469 665.203 24.0297L666.72 24.8577ZM660.721 21.615C661.754 22.0986 662.514 20.6487 661.479 20.0975L659.963 19.3387C658.926 18.7875 658.238 20.3735 659.202 20.8578L660.721 21.615ZM654.579 18.5807C655.615 19.0635 656.374 17.546 655.34 17.064L653.821 16.3044C652.856 15.8217 652.029 17.3392 653.062 17.8212L654.579 18.5807ZM648.443 15.7533C649.548 16.1668 650.099 14.5801 649.063 14.1657L647.547 13.4762C646.442 13.0634 645.821 14.7185 646.857 15.0629L648.443 15.7533ZM642.098 13.201C643.131 13.6146 643.82 12.0286 642.718 11.545L641.13 10.9939C640.098 10.5803 639.477 12.1662 640.511 12.5798L642.098 13.201ZM635.751 10.8555C636.925 11.2007 637.269 9.47632 636.302 9.20112L634.647 8.64837C633.474 8.30397 633.13 9.95833 634.096 10.3035L635.751 10.8555ZM629.268 8.71678C630.372 9.06118 630.784 7.40682 629.75 7.13084L628.094 6.64806C626.991 6.3021 626.509 7.95801 627.613 8.234L629.268 8.71678ZM622.715 6.92482C623.682 7.20003 624.302 5.61409 623.128 5.26813L621.475 4.85532C620.231 4.58011 620.025 6.30366 621.06 6.51123L622.715 6.92482ZM616.095 5.40806C617.197 5.61408 617.472 3.88897 616.439 3.68218L614.713 3.33779C613.61 3.13099 613.333 4.78612 614.438 4.99214L616.095 5.40806ZM609.403 4.09732C610.436 4.30412 610.853 2.64743 609.678 2.44142C609.127 2.30303 608.576 2.23462 607.953 2.09624C606.988 1.95864 606.507 3.61377 607.678 3.82057C608.301 3.88898 608.852 4.02813 609.403 4.09732ZM602.642 3.06179C603.818 3.1994 603.955 1.54427 602.85 1.40744L601.196 1.19909C600.023 1.06148 599.883 2.78658 600.989 2.85578L602.642 3.06179ZM595.884 2.37144C596.987 2.50982 597.194 0.786274 596.023 0.647892L594.298 0.510287C593.264 0.441096 592.988 2.09624 594.228 2.23384L595.884 2.37144ZM589.125 1.95863C590.299 1.95863 590.229 0.234304 589.194 0.234304L587.468 0.164339C586.297 0.164339 586.297 1.82025 587.399 1.89022L589.125 1.95863ZM582.295 1.75183C583.4 1.75183 583.47 0.0959242 582.295 0.0267334C581.744 0.0267334 581.123 0.0267334 580.572 0.0267334C579.536 0.0267334 579.399 1.75183 580.572 1.75183C581.193 1.75183 581.744 1.75183 582.295 1.75183ZM575.468 1.88944C576.71 1.82025 576.502 0.0951428 575.4 0.163556L573.743 0.233521C572.571 0.302712 572.71 2.02626 573.812 1.95785L575.468 1.88944ZM568.708 2.23384C569.813 2.16543 569.744 0.441094 568.57 0.578698L566.844 0.716304C565.741 0.785495 565.88 2.44064 566.983 2.37067L568.708 2.23384ZM561.95 2.9242C562.983 2.78659 562.915 1.06148 561.742 1.19909C561.189 1.26828 560.57 1.33747 560.019 1.40744C558.982 1.47585 559.051 3.20017 560.226 3.06179C560.777 2.99338 561.328 2.9242 561.95 2.9242ZM555.19 3.75137C556.362 3.54458 555.948 1.88944 554.915 2.09624L553.19 2.37144C552.087 2.57823 552.431 4.23493 553.465 4.02814L555.19 3.75137ZM548.429 4.92373C549.534 4.71693 549.258 3.0618 548.154 3.26937L546.432 3.54457C545.395 3.75137 545.671 5.47648 546.775 5.26813L548.429 4.92373ZM541.809 6.30366C542.843 6.09687 542.568 4.37253 541.395 4.64852L539.74 4.99292C538.569 5.33888 539.119 6.92482 540.153 6.64961L541.809 6.30366ZM535.186 7.88882C536.292 7.5452 535.807 5.95926 534.773 6.23447L533.048 6.64884C531.945 6.99324 532.427 8.57918 533.533 8.30397L535.186 7.88882ZM528.635 9.68313C529.669 9.40792 529.255 7.75122 528.15 8.02876L526.496 8.51076C525.461 8.78675 525.807 10.5111 526.978 10.1659L528.635 9.68313Z" fill="#009EE2"/>
</svg>
